<svg width="1716" height="187" viewBox="0 0 1716 187" fill="none" xmlns="http://www.w3.org/2000/svg">
<g filter="url(#filter0_d_17_674)">
<path d="M172.352 174.781C165.778 174.781 159.457 173.264 151.366 165.679L47.7034 72.6353V172H0.170183V31.6758C0.170183 9.17336 13.8233 0.0712598 28.7407 0.0712598C35.0616 0.0712598 41.3825 1.58827 49.7261 9.17336L153.389 102.217V2.85245H201.175V142.924C201.175 165.426 187.522 174.781 172.352 174.781ZM350.364 0.0712598C432.536 0.0712598 474.001 26.8719 474.001 87.2998C474.001 147.728 432.536 174.781 350.364 174.781C267.94 174.781 226.727 147.728 226.727 87.2998C226.727 26.8719 267.94 0.0712598 350.364 0.0712598ZM350.364 130.788C402.954 130.788 421.917 123.708 421.917 87.2998C421.917 50.8914 402.954 44.0648 350.364 44.0648C297.774 44.0648 278.812 50.8914 278.812 87.2998C278.812 123.708 297.774 130.788 350.364 130.788ZM618.756 0.0712598C700.928 0.0712598 742.393 26.8719 742.393 87.2998C742.393 147.728 700.928 174.781 618.756 174.781C536.331 174.781 495.119 147.728 495.119 87.2998C495.119 26.8719 536.331 0.0712598 618.756 0.0712598ZM618.756 130.788C671.346 130.788 690.309 123.708 690.309 87.2998C690.309 50.8914 671.346 44.0648 618.756 44.0648C566.166 44.0648 547.203 50.8914 547.203 87.2998C547.203 123.708 566.166 130.788 618.756 130.788ZM912.179 116.123L982.214 172H903.077L852.004 127.501C834.558 112.331 826.467 104.998 820.652 99.1831C820.905 107.021 821.41 115.365 821.41 123.455V172H768.82V2.85245H821.41V42.0421C821.41 52.4084 820.905 62.7747 820.399 71.624C826.973 65.5559 836.075 56.9594 851.498 44.0648L900.295 2.85245H976.146L911.42 51.397C888.918 68.3371 878.551 75.9222 867.68 82.4959C877.287 89.0697 890.435 98.4246 912.179 116.123ZM1051.77 128.512H1182.74L1148.86 172H999.435V2.85245H1051.77V128.512ZM1253.27 2.85245V172H1200.93V2.85245H1253.27ZM1280.54 150.509C1280.54 134.833 1293.18 125.731 1308.86 125.731C1324.79 125.731 1337.43 134.833 1337.43 150.509C1337.43 165.932 1324.79 174.781 1308.86 174.781C1293.18 174.781 1280.54 165.932 1280.54 150.509ZM1632.13 172H1435.43L1467.03 128.512H1509.51C1519.62 128.512 1531.51 128.512 1539.6 129.018C1535.05 122.95 1527.97 112.583 1522.4 104.493L1492.06 59.7406L1412.67 172H1350.73L1459.19 19.034C1466.27 9.17336 1476.64 0.0712598 1493.07 0.0712598C1508.75 0.0712598 1519.12 8.41486 1526.45 19.034L1632.13 172ZM1703.88 2.85245V172H1651.54V2.85245H1703.88Z" fill="#E50914"/>
</g>
<defs>
<filter id="filter0_d_17_674" x="0.170197" y="0.0712891" width="1715.15" height="186.146" filterUnits="userSpaceOnUse" color-interpolation-filters="sRGB">
<feFlood flood-opacity="0" result="BackgroundImageFix"/>
<feColorMatrix in="SourceAlpha" type="matrix" values="0 0 0 0 0 0 0 0 0 0 0 0 0 0 0 0 0 0 127 0" result="hardAlpha"/>
<feMorphology radius="4" operator="dilate" in="SourceAlpha" result="effect1_dropShadow_17_674"/>
<feOffset dx="7.43636" dy="7.43636"/>
<feComposite in2="hardAlpha" operator="out"/>
<feColorMatrix type="matrix" values="0 0 0 0 0 0 0 0 0 0 0 0 0 0 0 0 0 0 1 0"/>
<feBlend mode="normal" in2="BackgroundImageFix" result="effect1_dropShadow_17_674"/>
<feBlend mode="normal" in="SourceGraphic" in2="effect1_dropShadow_17_674" result="shape"/>
</filter>
</defs>
</svg>
