<svg width="1716" height="289" viewBox="0 0 1716 289" fill="none" xmlns="http://www.w3.org/2000/svg">
<path d="M246.645 270.704C244.64 270.704 242.699 270.469 240.821 270C238.944 269.573 237.237 268.848 235.701 267.824C234.208 266.8 232.992 265.499 232.053 263.92C231.157 262.341 230.688 260.421 230.645 258.16H237.237C237.237 258.331 237.28 258.672 237.365 259.184C237.451 259.653 237.664 260.208 238.005 260.848C238.389 261.488 238.923 262.107 239.605 262.704C240.331 263.301 241.291 263.813 242.485 264.24C243.723 264.624 245.259 264.816 247.093 264.816C248.373 264.816 249.461 264.688 250.357 264.432C251.296 264.176 252.064 263.835 252.661 263.408C253.301 262.981 253.771 262.512 254.069 262C254.368 261.445 254.517 260.912 254.517 260.4C254.517 259.205 254.091 258.267 253.237 257.584C252.427 256.859 251.317 256.283 249.909 255.856C248.544 255.387 247.029 254.981 245.365 254.64C243.744 254.256 242.101 253.808 240.437 253.296C238.816 252.784 237.323 252.123 235.957 251.312C234.592 250.459 233.525 249.371 232.757 248.048C232.032 246.725 231.712 245.04 231.797 242.992C231.968 240.987 232.672 239.259 233.909 237.808C235.147 236.357 236.875 235.248 239.093 234.48C241.312 233.712 243.893 233.328 246.837 233.328C249.397 233.328 251.765 233.797 253.941 234.736C256.16 235.632 257.931 236.997 259.253 238.832C260.619 240.624 261.301 242.928 261.301 245.744H254.965C254.965 244.421 254.667 243.355 254.069 242.544C253.472 241.691 252.704 241.051 251.765 240.624C250.869 240.155 249.909 239.856 248.885 239.728C247.861 239.557 246.944 239.472 246.133 239.472C244 239.472 242.229 239.835 240.821 240.56C239.456 241.243 238.773 242.309 238.773 243.76C238.731 244.997 239.136 245.979 239.989 246.704C240.843 247.387 241.973 247.941 243.381 248.368C244.789 248.795 246.325 249.2 247.989 249.584C249.653 249.925 251.317 250.331 252.981 250.8C254.645 251.269 256.139 251.909 257.461 252.72C258.827 253.531 259.893 254.597 260.661 255.92C261.472 257.243 261.813 258.971 261.685 261.104C261.6 263.109 260.896 264.837 259.573 266.288C258.251 267.696 256.48 268.784 254.261 269.552C252.085 270.32 249.547 270.704 246.645 270.704ZM272.865 270H266.273V233.968H272.865V270ZM289.953 233.968H296.481V270H289.953V233.968ZM293.857 254.192H269.281V249.136H293.857V254.192ZM317.338 270.896C311.536 270.896 307.098 269.211 304.026 265.84C300.954 262.427 299.418 257.84 299.418 252.08C299.418 248.283 300.08 244.997 301.402 242.224C302.725 239.408 304.709 237.232 307.354 235.696C310.042 234.117 313.37 233.328 317.338 233.328C323.184 233.328 327.621 235.035 330.65 238.448C333.722 241.819 335.258 246.363 335.258 252.08C335.258 255.792 334.576 259.077 333.21 261.936C331.845 264.752 329.84 266.949 327.194 268.528C324.549 270.107 321.264 270.896 317.338 270.896ZM317.274 264.624C319.877 264.624 322.032 264.091 323.738 263.024C325.445 261.915 326.725 260.421 327.578 258.544C328.432 256.624 328.858 254.469 328.858 252.08C328.858 249.648 328.432 247.493 327.578 245.616C326.725 243.696 325.445 242.203 323.738 241.136C322.032 240.027 319.877 239.472 317.274 239.472C313.52 239.472 310.661 240.624 308.698 242.928C306.736 245.232 305.754 248.283 305.754 252.08C305.754 254.427 306.16 256.56 306.97 258.48C307.824 260.357 309.104 261.851 310.81 262.96C312.517 264.069 314.672 264.624 317.274 264.624ZM354.606 270.896C348.803 270.896 344.366 269.211 341.294 265.84C338.222 262.427 336.686 257.84 336.686 252.08C336.686 248.283 337.347 244.997 338.67 242.224C339.992 239.408 341.976 237.232 344.622 235.696C347.31 234.117 350.638 233.328 354.606 233.328C360.451 233.328 364.888 235.035 367.918 238.448C370.99 241.819 372.526 246.363 372.526 252.08C372.526 255.792 371.843 259.077 370.478 261.936C369.112 264.752 367.107 266.949 364.462 268.528C361.816 270.107 358.531 270.896 354.606 270.896ZM354.542 264.624C357.144 264.624 359.299 264.091 361.006 263.024C362.712 261.915 363.992 260.421 364.846 258.544C365.699 256.624 366.126 254.469 366.126 252.08C366.126 249.648 365.699 247.493 364.846 245.616C363.992 243.696 362.712 242.203 361.006 241.136C359.299 240.027 357.144 239.472 354.542 239.472C350.787 239.472 347.928 240.624 345.966 242.928C344.003 245.232 343.022 248.283 343.022 252.08C343.022 254.427 343.427 256.56 344.238 258.48C345.091 260.357 346.371 261.851 348.078 262.96C349.784 264.069 351.939 264.624 354.542 264.624ZM389.968 235.12V270H383.44V235.12H389.968ZM372.816 239.6V233.968H400.656V239.6H372.816ZM422.584 270H416.184V233.968H441.848V239.6H422.584V248.432H437.304V253.744H422.584V270ZM459.488 270.896C453.686 270.896 449.248 269.211 446.176 265.84C443.104 262.427 441.568 257.84 441.568 252.08C441.568 248.283 442.23 244.997 443.552 242.224C444.875 239.408 446.859 237.232 449.504 235.696C452.192 234.117 455.52 233.328 459.488 233.328C465.334 233.328 469.771 235.035 472.8 238.448C475.872 241.819 477.408 246.363 477.408 252.08C477.408 255.792 476.726 259.077 475.36 261.936C473.995 264.752 471.99 266.949 469.344 268.528C466.699 270.107 463.414 270.896 459.488 270.896ZM459.424 264.624C462.027 264.624 464.182 264.091 465.888 263.024C467.595 261.915 468.875 260.421 469.728 258.544C470.582 256.624 471.008 254.469 471.008 252.08C471.008 249.648 470.582 247.493 469.728 245.616C468.875 243.696 467.595 242.203 465.888 241.136C464.182 240.027 462.027 239.472 459.424 239.472C455.67 239.472 452.811 240.624 450.848 242.928C448.886 245.232 447.904 248.283 447.904 252.08C447.904 254.427 448.31 256.56 449.12 258.48C449.974 260.357 451.254 261.851 452.96 262.96C454.667 264.069 456.822 264.624 459.424 264.624ZM481.268 270V233.968H494.516C497.63 233.968 500.276 234.309 502.452 234.992C504.67 235.675 506.356 236.784 507.508 238.32C508.702 239.813 509.3 241.883 509.3 244.528C509.3 246.491 508.98 248.219 508.34 249.712C507.742 251.163 506.825 252.315 505.588 253.168C504.393 253.979 502.9 254.384 501.108 254.384C502.388 254.384 503.39 254.64 504.116 255.152C504.841 255.621 505.374 256.261 505.716 257.072C506.1 257.84 506.356 258.672 506.484 259.568C506.612 260.464 506.718 261.339 506.804 262.192C506.932 263.045 507.124 263.792 507.38 264.432C507.636 265.029 508.041 265.435 508.596 265.648C509.15 265.819 509.961 265.712 511.028 265.328V269.104C510.217 269.787 509.257 270.235 508.148 270.448C507.038 270.704 505.95 270.64 504.884 270.256C503.817 269.872 502.921 269.125 502.196 268.016C501.47 266.864 501.108 265.264 501.108 263.216C501.108 261.723 501.044 260.464 500.916 259.44C500.788 258.416 500.489 257.605 500.02 257.008C499.593 256.368 498.889 255.899 497.908 255.6C496.969 255.259 495.689 255.067 494.068 255.024C492.446 254.939 490.356 254.96 487.796 255.088V270H481.268ZM487.796 250.352H494.26C496.393 250.352 498.121 250.267 499.444 250.096C500.809 249.883 501.812 249.392 502.452 248.624C503.134 247.856 503.476 246.661 503.476 245.04C503.476 243.205 503.07 241.883 502.26 241.072C501.449 240.261 500.254 239.771 498.676 239.6C497.14 239.387 495.241 239.28 492.98 239.28H487.796V250.352ZM541.073 235.12V270H534.545V235.12H541.073ZM523.921 239.6V233.968H551.761V239.6H523.921ZM561.415 270H554.823V233.968H561.415V270ZM578.503 233.968H585.031V270H578.503V233.968ZM582.407 254.192H557.831V249.136H582.407V254.192ZM590.208 270V233.968H615.936V239.6H596.672V249.072H611.456V254.448H596.672V264.752H616.576V270H590.208ZM646.64 270.704C644.635 270.704 642.694 270.469 640.816 270C638.939 269.573 637.232 268.848 635.696 267.824C634.203 266.8 632.987 265.499 632.048 263.92C631.152 262.341 630.683 260.421 630.64 258.16H637.232C637.232 258.331 637.275 258.672 637.36 259.184C637.446 259.653 637.659 260.208 638 260.848C638.384 261.488 638.918 262.107 639.6 262.704C640.326 263.301 641.286 263.813 642.48 264.24C643.718 264.624 645.254 264.816 647.088 264.816C648.368 264.816 649.456 264.688 650.352 264.432C651.291 264.176 652.059 263.835 652.656 263.408C653.296 262.981 653.766 262.512 654.064 262C654.363 261.445 654.512 260.912 654.512 260.4C654.512 259.205 654.086 258.267 653.232 257.584C652.422 256.859 651.312 256.283 649.904 255.856C648.539 255.387 647.024 254.981 645.36 254.64C643.739 254.256 642.096 253.808 640.432 253.296C638.811 252.784 637.318 252.123 635.952 251.312C634.587 250.459 633.52 249.371 632.752 248.048C632.027 246.725 631.707 245.04 631.792 242.992C631.963 240.987 632.667 239.259 633.904 237.808C635.142 236.357 636.87 235.248 639.088 234.48C641.307 233.712 643.888 233.328 646.832 233.328C649.392 233.328 651.76 233.797 653.936 234.736C656.155 235.632 657.926 236.997 659.248 238.832C660.614 240.624 661.296 242.928 661.296 245.744H654.96C654.96 244.421 654.662 243.355 654.064 242.544C653.467 241.691 652.699 241.051 651.76 240.624C650.864 240.155 649.904 239.856 648.88 239.728C647.856 239.557 646.939 239.472 646.128 239.472C643.995 239.472 642.224 239.835 640.816 240.56C639.451 241.243 638.768 242.309 638.768 243.76C638.726 244.997 639.131 245.979 639.984 246.704C640.838 247.387 641.968 247.941 643.376 248.368C644.784 248.795 646.32 249.2 647.984 249.584C649.648 249.925 651.312 250.331 652.976 250.8C654.64 251.269 656.134 251.909 657.456 252.72C658.822 253.531 659.888 254.597 660.656 255.92C661.467 257.243 661.808 258.971 661.68 261.104C661.595 263.109 660.891 264.837 659.568 266.288C658.246 267.696 656.475 268.784 654.256 269.552C652.08 270.32 649.542 270.704 646.64 270.704ZM680.348 235.12V270H673.82V235.12H680.348ZM663.196 239.6V233.968H691.036V239.6H663.196ZM689.227 270L700.747 233.968H711.435L723.275 270H716.299L706.187 236.72L696.139 270H689.227ZM696.971 259.824L697.035 254.768H715.275L715.339 259.824H696.971ZM725.925 270V233.968H739.173C742.288 233.968 744.933 234.309 747.109 234.992C749.328 235.675 751.013 236.784 752.165 238.32C753.36 239.813 753.957 241.883 753.957 244.528C753.957 246.491 753.637 248.219 752.997 249.712C752.4 251.163 751.483 252.315 750.245 253.168C749.051 253.979 747.557 254.384 745.765 254.384C747.045 254.384 748.048 254.64 748.773 255.152C749.499 255.621 750.032 256.261 750.373 257.072C750.757 257.84 751.013 258.672 751.141 259.568C751.269 260.464 751.376 261.339 751.461 262.192C751.589 263.045 751.781 263.792 752.037 264.432C752.293 265.029 752.699 265.435 753.253 265.648C753.808 265.819 754.619 265.712 755.685 265.328V269.104C754.875 269.787 753.915 270.235 752.805 270.448C751.696 270.704 750.608 270.64 749.541 270.256C748.475 269.872 747.579 269.125 746.853 268.016C746.128 266.864 745.765 265.264 745.765 263.216C745.765 261.723 745.701 260.464 745.573 259.44C745.445 258.416 745.147 257.605 744.677 257.008C744.251 256.368 743.547 255.899 742.565 255.6C741.627 255.259 740.347 255.067 738.725 255.024C737.104 254.939 735.013 254.96 732.453 255.088V270H725.925ZM732.453 250.352H738.917C741.051 250.352 742.779 250.267 744.101 250.096C745.467 249.883 746.469 249.392 747.109 248.624C747.792 247.856 748.133 246.661 748.133 245.04C748.133 243.205 747.728 241.883 746.917 241.072C746.107 240.261 744.912 239.771 743.333 239.6C741.797 239.387 739.899 239.28 737.637 239.28H732.453V250.352ZM773.585 270.704C771.58 270.704 769.639 270.469 767.761 270C765.884 269.573 764.177 268.848 762.641 267.824C761.148 266.8 759.932 265.499 758.993 263.92C758.097 262.341 757.628 260.421 757.585 258.16H764.177C764.177 258.331 764.22 258.672 764.305 259.184C764.391 259.653 764.604 260.208 764.945 260.848C765.329 261.488 765.863 262.107 766.545 262.704C767.271 263.301 768.231 263.813 769.425 264.24C770.663 264.624 772.199 264.816 774.033 264.816C775.313 264.816 776.401 264.688 777.297 264.432C778.236 264.176 779.004 263.835 779.601 263.408C780.241 262.981 780.711 262.512 781.009 262C781.308 261.445 781.457 260.912 781.457 260.4C781.457 259.205 781.031 258.267 780.177 257.584C779.367 256.859 778.257 256.283 776.849 255.856C775.484 255.387 773.969 254.981 772.305 254.64C770.684 254.256 769.041 253.808 767.377 253.296C765.756 252.784 764.263 252.123 762.897 251.312C761.532 250.459 760.465 249.371 759.697 248.048C758.972 246.725 758.652 245.04 758.737 242.992C758.908 240.987 759.612 239.259 760.849 237.808C762.087 236.357 763.815 235.248 766.033 234.48C768.252 233.712 770.833 233.328 773.777 233.328C776.337 233.328 778.705 233.797 780.881 234.736C783.1 235.632 784.871 236.997 786.193 238.832C787.559 240.624 788.241 242.928 788.241 245.744H781.905C781.905 244.421 781.607 243.355 781.009 242.544C780.412 241.691 779.644 241.051 778.705 240.624C777.809 240.155 776.849 239.856 775.825 239.728C774.801 239.557 773.884 239.472 773.073 239.472C770.94 239.472 769.169 239.835 767.761 240.56C766.396 241.243 765.713 242.309 765.713 243.76C765.671 244.997 766.076 245.979 766.929 246.704C767.783 247.387 768.913 247.941 770.321 248.368C771.729 248.795 773.265 249.2 774.929 249.584C776.593 249.925 778.257 250.331 779.921 250.8C781.585 251.269 783.079 251.909 784.401 252.72C785.767 253.531 786.833 254.597 787.601 255.92C788.412 257.243 788.753 258.971 788.625 261.104C788.54 263.109 787.836 264.837 786.513 266.288C785.191 267.696 783.42 268.784 781.201 269.552C779.025 270.32 776.487 270.704 773.585 270.704ZM795.645 270C794.109 270 793.064 269.616 792.509 268.848C791.997 268.08 791.741 267.141 791.741 266.032C791.741 265.008 791.997 264.112 792.509 263.344C793.064 262.576 794.109 262.192 795.645 262.192C797.096 262.192 798.077 262.576 798.589 263.344C799.144 264.112 799.421 265.008 799.421 266.032C799.421 267.141 799.144 268.08 798.589 268.848C798.077 269.616 797.096 270 795.645 270ZM835.628 233.968H842.54L839.084 242.352L833.132 270H822.572L813.868 233.968H820.844L827.82 267.248L835.628 233.968ZM857.324 233.968H864.236L855.596 270H845.1L839.084 242.352L835.564 233.968H842.54L850.348 267.248L857.324 233.968ZM867.883 270V233.968H893.611V239.6H874.347V249.072H889.131V254.448H874.347V264.752H894.251V270H867.883ZM896.874 249.456V244.016C898.324 244.016 899.455 243.803 900.266 243.376C901.119 242.907 901.738 242.373 902.122 241.776C902.548 241.136 902.804 240.496 902.89 239.856C903.018 239.216 903.06 238.683 903.018 238.256C902.975 237.829 902.954 237.616 902.954 237.616H905.642C905.642 237.872 905.599 238.448 905.514 239.344C905.471 240.197 905.3 241.2 905.002 242.352C904.746 243.461 904.298 244.571 903.658 245.68C903.018 246.789 902.143 247.707 901.034 248.432C899.967 249.115 898.58 249.456 896.874 249.456ZM902.122 241.264C900.756 241.264 899.796 240.923 899.242 240.24C898.687 239.515 898.41 238.64 898.41 237.616C898.41 236.592 898.666 235.739 899.178 235.056C899.732 234.331 900.671 233.968 901.994 233.968C903.359 233.968 904.298 234.331 904.81 235.056C905.364 235.739 905.642 236.613 905.642 237.68C905.642 238.661 905.386 239.515 904.874 240.24C904.404 240.923 903.487 241.264 902.122 241.264ZM910.746 269.68V233.968H917.274V269.68H910.746ZM910.746 270V264.432H935.066V270H910.746ZM938.888 269.68V233.968H945.416V269.68H938.888ZM938.888 270V264.432H963.208V270H938.888ZM978.536 270V233.968H992.808C993.875 233.968 995.027 234.011 996.264 234.096C997.544 234.181 998.803 234.395 1000.04 234.736C1001.32 235.035 1002.47 235.547 1003.5 236.272C1004.52 236.955 1005.35 237.893 1005.99 239.088C1006.63 240.24 1006.95 241.712 1006.95 243.504C1006.95 244.869 1006.67 246.128 1006.12 247.28C1005.61 248.432 1004.65 249.392 1003.24 250.16C1001.83 250.885 999.784 251.312 997.096 251.44V251.632C1000.17 251.717 1002.54 252.165 1004.2 252.976C1005.86 253.744 1007.02 254.768 1007.66 256.048C1008.3 257.328 1008.62 258.757 1008.62 260.336C1008.62 262.171 1008.27 263.685 1007.59 264.88C1006.95 266.075 1006.06 267.035 1004.9 267.76C1003.75 268.443 1002.49 268.955 1001.13 269.296C999.763 269.595 998.376 269.787 996.968 269.872C995.603 269.957 994.323 270 993.128 270H978.536ZM985 264.752H992.616C994.28 264.752 995.816 264.667 997.224 264.496C998.632 264.283 999.763 263.792 1000.62 263.024C1001.47 262.256 1001.9 261.061 1001.9 259.44C1001.9 257.733 1001.45 256.496 1000.55 255.728C999.699 254.96 998.526 254.469 997.032 254.256C995.582 254.043 993.982 253.936 992.232 253.936H985V264.752ZM984.936 248.944H992.04C993.534 248.944 994.92 248.859 996.2 248.688C997.48 248.517 998.504 248.112 999.272 247.472C1000.08 246.789 1000.49 245.701 1000.49 244.208C1000.49 242.629 1000.08 241.499 999.272 240.816C998.504 240.133 997.48 239.707 996.2 239.536C994.92 239.365 993.534 239.28 992.04 239.28H984.936V248.944ZM1027.98 270.896C1022.9 270.896 1019.02 269.488 1016.33 266.672C1013.64 263.813 1012.3 259.803 1012.3 254.64V233.968H1019.28V254.576C1019.28 256.581 1019.51 258.245 1019.98 259.568C1020.49 260.848 1021.15 261.872 1021.96 262.64C1022.82 263.365 1023.76 263.899 1024.78 264.24C1025.85 264.539 1026.91 264.688 1027.98 264.688C1029.6 264.688 1031.07 264.411 1032.4 263.856C1033.72 263.259 1034.76 262.235 1035.53 260.784C1036.34 259.291 1036.75 257.221 1036.75 254.576V233.968H1043.66V254.64C1043.66 259.888 1042.34 263.92 1039.69 266.736C1037.09 269.509 1033.19 270.896 1027.98 270.896ZM1053.76 268.848V235.12H1060.22V268.848H1053.76ZM1048.89 270V264.432H1064.96V270H1048.89ZM1048.89 239.6V233.968H1064.96V239.6H1048.89ZM1071.35 269.68V233.968H1077.88V269.68H1071.35ZM1071.35 270V264.432H1095.67V270H1071.35ZM1105.96 264.624C1107.49 264.624 1108.67 264.624 1109.48 264.624C1110.33 264.624 1110.93 264.624 1111.27 264.624C1113.4 264.624 1115.3 264.453 1116.97 264.112C1118.63 263.728 1120.06 263.088 1121.25 262.192C1122.49 261.253 1123.41 259.952 1124.01 258.288C1124.65 256.624 1124.97 254.491 1124.97 251.888C1124.97 249.157 1124.41 246.896 1123.3 245.104C1122.19 243.269 1120.61 241.904 1118.57 241.008C1116.52 240.069 1114.09 239.6 1111.27 239.6H1105.96V264.624ZM1131.94 251.952C1131.94 256.688 1131 260.379 1129.13 263.024C1127.29 265.627 1124.69 267.44 1121.32 268.464C1117.95 269.488 1113.98 270 1109.41 270C1108.73 270 1107.62 270 1106.09 270C1104.55 270 1102.35 270 1099.49 270V233.968C1102.52 233.968 1104.76 233.968 1106.21 233.968C1107.71 233.968 1108.77 233.968 1109.41 233.968C1113.98 233.968 1117.95 234.651 1121.32 236.016C1124.69 237.339 1127.29 239.323 1129.13 241.968C1131 244.613 1131.94 247.941 1131.94 251.952ZM1155.32 257.328L1143.03 233.968H1150.32L1158.71 251.568L1166.96 233.968H1174.26L1161.72 257.328H1155.32ZM1155.32 270V256.496H1161.78V270H1155.32ZM1190.15 270.896C1184.35 270.896 1179.91 269.211 1176.84 265.84C1173.76 262.427 1172.23 257.84 1172.23 252.08C1172.23 248.283 1172.89 244.997 1174.21 242.224C1175.53 239.408 1177.52 237.232 1180.16 235.696C1182.85 234.117 1186.18 233.328 1190.15 233.328C1195.99 233.328 1200.43 235.035 1203.46 238.448C1206.53 241.819 1208.07 246.363 1208.07 252.08C1208.07 255.792 1207.39 259.077 1206.02 261.936C1204.65 264.752 1202.65 266.949 1200 268.528C1197.36 270.107 1194.07 270.896 1190.15 270.896ZM1190.08 264.624C1192.69 264.624 1194.84 264.091 1196.55 263.024C1198.25 261.915 1199.53 260.421 1200.39 258.544C1201.24 256.624 1201.67 254.469 1201.67 252.08C1201.67 249.648 1201.24 247.493 1200.39 245.616C1199.53 243.696 1198.25 242.203 1196.55 241.136C1194.84 240.027 1192.69 239.472 1190.08 239.472C1186.33 239.472 1183.47 240.624 1181.51 242.928C1179.55 245.232 1178.56 248.283 1178.56 252.08C1178.56 254.427 1178.97 256.56 1179.78 258.48C1180.63 260.357 1181.91 261.851 1183.62 262.96C1185.33 264.069 1187.48 264.624 1190.08 264.624ZM1227.85 270.896C1222.78 270.896 1218.89 269.488 1216.21 266.672C1213.52 263.813 1212.17 259.803 1212.17 254.64V233.968H1219.15V254.576C1219.15 256.581 1219.38 258.245 1219.85 259.568C1220.37 260.848 1221.03 261.872 1221.84 262.64C1222.69 263.365 1223.63 263.899 1224.65 264.24C1225.72 264.539 1226.79 264.688 1227.85 264.688C1229.47 264.688 1230.95 264.411 1232.27 263.856C1233.59 263.259 1234.64 262.235 1235.41 260.784C1236.22 259.291 1236.62 257.221 1236.62 254.576V233.968H1243.53V254.64C1243.53 259.888 1242.21 263.92 1239.57 266.736C1236.96 269.509 1233.06 270.896 1227.85 270.896ZM1248.51 270V233.968H1261.76C1264.87 233.968 1267.52 234.309 1269.69 234.992C1271.91 235.675 1273.6 236.784 1274.75 238.32C1275.94 239.813 1276.54 241.883 1276.54 244.528C1276.54 246.491 1276.22 248.219 1275.58 249.712C1274.98 251.163 1274.07 252.315 1272.83 253.168C1271.63 253.979 1270.14 254.384 1268.35 254.384C1269.63 254.384 1270.63 254.64 1271.36 255.152C1272.08 255.621 1272.61 256.261 1272.96 257.072C1273.34 257.84 1273.6 258.672 1273.72 259.568C1273.85 260.464 1273.96 261.339 1274.04 262.192C1274.17 263.045 1274.36 263.792 1274.62 264.432C1274.88 265.029 1275.28 265.435 1275.84 265.648C1276.39 265.819 1277.2 265.712 1278.27 265.328V269.104C1277.46 269.787 1276.5 270.235 1275.39 270.448C1274.28 270.704 1273.19 270.64 1272.12 270.256C1271.06 269.872 1270.16 269.125 1269.44 268.016C1268.71 266.864 1268.35 265.264 1268.35 263.216C1268.35 261.723 1268.28 260.464 1268.16 259.44C1268.03 258.416 1267.73 257.605 1267.26 257.008C1266.83 256.368 1266.13 255.899 1265.15 255.6C1264.21 255.259 1262.93 255.067 1261.31 255.024C1259.69 254.939 1257.6 254.96 1255.04 255.088V270H1248.51ZM1255.04 250.352H1261.5C1263.63 250.352 1265.36 250.267 1266.68 250.096C1268.05 249.883 1269.05 249.392 1269.69 248.624C1270.37 247.856 1270.72 246.661 1270.72 245.04C1270.72 243.205 1270.31 241.883 1269.5 241.072C1268.69 240.261 1267.49 239.771 1265.92 239.6C1264.38 239.387 1262.48 239.28 1260.22 239.28H1255.04V250.352ZM1294.55 269.68V233.968H1301.08V269.68H1294.55ZM1294.55 270V264.432H1318.87V270H1294.55ZM1319.88 270L1331.4 233.968H1342.09L1353.93 270H1346.95L1336.84 236.72L1326.79 270H1319.88ZM1327.62 259.824L1327.69 254.768H1345.93L1345.99 259.824H1327.62ZM1363.49 264.624C1365.03 264.624 1366.2 264.624 1367.01 264.624C1367.86 264.624 1368.46 264.624 1368.8 264.624C1370.93 264.624 1372.83 264.453 1374.5 264.112C1376.16 263.728 1377.59 263.088 1378.79 262.192C1380.02 261.253 1380.94 259.952 1381.54 258.288C1382.18 256.624 1382.5 254.491 1382.5 251.888C1382.5 249.157 1381.94 246.896 1380.83 245.104C1379.72 243.269 1378.15 241.904 1376.1 241.008C1374.05 240.069 1371.62 239.6 1368.8 239.6H1363.49V264.624ZM1389.47 251.952C1389.47 256.688 1388.53 260.379 1386.66 263.024C1384.82 265.627 1382.22 267.44 1378.85 268.464C1375.48 269.488 1371.51 270 1366.95 270C1366.26 270 1365.15 270 1363.62 270C1362.08 270 1359.88 270 1357.03 270V233.968C1360.05 233.968 1362.29 233.968 1363.75 233.968C1365.24 233.968 1366.31 233.968 1366.95 233.968C1371.51 233.968 1375.48 234.651 1378.85 236.016C1382.22 237.339 1384.82 239.323 1386.66 241.968C1388.53 244.613 1389.47 247.941 1389.47 251.952ZM1400.38 264.624C1401.92 264.624 1403.09 264.624 1403.9 264.624C1404.76 264.624 1405.35 264.624 1405.69 264.624C1407.83 264.624 1409.73 264.453 1411.39 264.112C1413.05 263.728 1414.48 263.088 1415.68 262.192C1416.92 261.253 1417.83 259.952 1418.43 258.288C1419.07 256.624 1419.39 254.491 1419.39 251.888C1419.39 249.157 1418.84 246.896 1417.73 245.104C1416.62 243.269 1415.04 241.904 1412.99 241.008C1410.94 240.069 1408.51 239.6 1405.69 239.6H1400.38V264.624ZM1426.37 251.952C1426.37 256.688 1425.43 260.379 1423.55 263.024C1421.72 265.627 1419.11 267.44 1415.74 268.464C1412.37 269.488 1408.4 270 1403.84 270C1403.16 270 1402.05 270 1400.51 270C1398.97 270 1396.78 270 1393.92 270V233.968C1396.95 233.968 1399.19 233.968 1400.64 233.968C1402.13 233.968 1403.2 233.968 1403.84 233.968C1408.4 233.968 1412.37 234.651 1415.74 236.016C1419.11 237.339 1421.72 239.323 1423.55 241.968C1425.43 244.613 1426.37 247.941 1426.37 251.952ZM1430.17 270V233.968H1455.9V239.6H1436.63V249.072H1451.42V254.448H1436.63V264.752H1456.54V270H1430.17ZM1460.51 270V233.968H1473.75C1476.87 233.968 1479.51 234.309 1481.69 234.992C1483.91 235.675 1485.59 236.784 1486.75 238.32C1487.94 239.813 1488.54 241.883 1488.54 244.528C1488.54 246.491 1488.22 248.219 1487.58 249.712C1486.98 251.163 1486.06 252.315 1484.83 253.168C1483.63 253.979 1482.14 254.384 1480.35 254.384C1481.63 254.384 1482.63 254.64 1483.35 255.152C1484.08 255.621 1484.61 256.261 1484.95 257.072C1485.34 257.84 1485.59 258.672 1485.72 259.568C1485.85 260.464 1485.96 261.339 1486.04 262.192C1486.17 263.045 1486.36 263.792 1486.62 264.432C1486.87 265.029 1487.28 265.435 1487.83 265.648C1488.39 265.819 1489.2 265.712 1490.27 265.328V269.104C1489.45 269.787 1488.49 270.235 1487.39 270.448C1486.28 270.704 1485.19 270.64 1484.12 270.256C1483.05 269.872 1482.16 269.125 1481.43 268.016C1480.71 266.864 1480.35 265.264 1480.35 263.216C1480.35 261.723 1480.28 260.464 1480.15 259.44C1480.03 258.416 1479.73 257.605 1479.26 257.008C1478.83 256.368 1478.13 255.899 1477.15 255.6C1476.21 255.259 1474.93 255.067 1473.31 255.024C1471.68 254.939 1469.59 254.96 1467.03 255.088V270H1460.51ZM1467.03 250.352H1473.5C1475.63 250.352 1477.36 250.267 1478.68 250.096C1480.05 249.883 1481.05 249.392 1481.69 248.624C1482.37 247.856 1482.71 246.661 1482.71 245.04C1482.71 243.205 1482.31 241.883 1481.5 241.072C1480.69 240.261 1479.49 239.771 1477.91 239.6C1476.38 239.387 1474.48 239.28 1472.22 239.28H1467.03V250.352ZM1496.65 270C1495.11 270 1494.06 269.616 1493.51 268.848C1493 268.08 1492.74 267.141 1492.74 266.032C1492.74 265.008 1493 264.112 1493.51 263.344C1494.06 262.576 1495.11 262.192 1496.65 262.192C1498.1 262.192 1499.08 262.576 1499.59 263.344C1500.14 264.112 1500.42 265.008 1500.42 266.032C1500.42 267.141 1500.14 268.08 1499.59 268.848C1499.08 269.616 1498.1 270 1496.65 270Z" fill="#D40000"/>
<g filter="url(#filter0_d_0_1)">
<path d="M172.352 174.781C165.778 174.781 159.457 173.264 151.366 165.679L47.7034 72.6353V172H0.170183V31.6758C0.170183 9.17336 13.8233 0.0712598 28.7407 0.0712598C35.0616 0.0712598 41.3825 1.58827 49.7261 9.17336L153.389 102.217V2.85245H201.175V142.924C201.175 165.426 187.522 174.781 172.352 174.781ZM350.364 0.0712598C432.536 0.0712598 474.001 26.8719 474.001 87.2998C474.001 147.728 432.536 174.781 350.364 174.781C267.94 174.781 226.727 147.728 226.727 87.2998C226.727 26.8719 267.94 0.0712598 350.364 0.0712598ZM350.364 130.788C402.954 130.788 421.917 123.708 421.917 87.2998C421.917 50.8914 402.954 44.0648 350.364 44.0648C297.774 44.0648 278.812 50.8914 278.812 87.2998C278.812 123.708 297.774 130.788 350.364 130.788ZM618.756 0.0712598C700.928 0.0712598 742.393 26.8719 742.393 87.2998C742.393 147.728 700.928 174.781 618.756 174.781C536.331 174.781 495.119 147.728 495.119 87.2998C495.119 26.8719 536.331 0.0712598 618.756 0.0712598ZM618.756 130.788C671.346 130.788 690.309 123.708 690.309 87.2998C690.309 50.8914 671.346 44.0648 618.756 44.0648C566.166 44.0648 547.203 50.8914 547.203 87.2998C547.203 123.708 566.166 130.788 618.756 130.788ZM912.179 116.123L982.214 172H903.077L852.004 127.501C834.558 112.331 826.467 104.998 820.652 99.1831C820.905 107.021 821.41 115.365 821.41 123.455V172H768.82V2.85245H821.41V42.0421C821.41 52.4084 820.905 62.7747 820.399 71.624C826.973 65.5559 836.075 56.9594 851.498 44.0648L900.295 2.85245H976.146L911.42 51.397C888.918 68.3371 878.551 75.9222 867.68 82.4959C877.287 89.0697 890.435 98.4246 912.179 116.123ZM1051.77 128.512H1182.74L1148.86 172H999.435V2.85245H1051.77V128.512ZM1253.27 2.85245V172H1200.93V2.85245H1253.27ZM1280.54 150.509C1280.54 134.833 1293.18 125.731 1308.86 125.731C1324.79 125.731 1337.43 134.833 1337.43 150.509C1337.43 165.932 1324.79 174.781 1308.86 174.781C1293.18 174.781 1280.54 165.932 1280.54 150.509ZM1632.13 172H1435.43L1467.03 128.512H1509.51C1519.62 128.512 1531.51 128.512 1539.6 129.018C1535.05 122.95 1527.97 112.583 1522.4 104.493L1492.06 59.7406L1412.67 172H1350.73L1459.19 19.034C1466.27 9.17336 1476.64 0.0712598 1493.07 0.0712598C1508.75 0.0712598 1519.12 8.41486 1526.45 19.034L1632.13 172ZM1703.88 2.85245V172H1651.54V2.85245H1703.88Z" fill="#E50914"/>
</g>
<defs>
<filter id="filter0_d_0_1" x="0.170197" y="0.0712891" width="1715.15" height="186.146" filterUnits="userSpaceOnUse" color-interpolation-filters="sRGB">
<feFlood flood-opacity="0" result="BackgroundImageFix"/>
<feColorMatrix in="SourceAlpha" type="matrix" values="0 0 0 0 0 0 0 0 0 0 0 0 0 0 0 0 0 0 127 0" result="hardAlpha"/>
<feMorphology radius="4" operator="dilate" in="SourceAlpha" result="effect1_dropShadow_0_1"/>
<feOffset dx="7.43636" dy="7.43636"/>
<feComposite in2="hardAlpha" operator="out"/>
<feColorMatrix type="matrix" values="0 0 0 0 0 0 0 0 0 0 0 0 0 0 0 0 0 0 1 0"/>
<feBlend mode="normal" in2="BackgroundImageFix" result="effect1_dropShadow_0_1"/>
<feBlend mode="normal" in="SourceGraphic" in2="effect1_dropShadow_0_1" result="shape"/>
</filter>
</defs>
</svg>
